<svg width="72" height="72" viewBox="0 0 72 72" fill="none" xmlns="http://www.w3.org/2000/svg"><path d="M58.6673 63.9692C52.4787 68.9909 44.5907 72 36 72C27.4092 72 19.5213 68.9909 13.3327 63.9692C19.5213 58.9476 27.4092 55.9385 36 55.9385C44.5907 55.9385 52.4787 58.9476 58.6673 63.9692Z" fill="#FF355E"></path><path fill-rule="evenodd" clip-rule="evenodd" d="M13.1353 55.2799C8.74091 50.0738 6.09231 43.3462 6.09231 36C6.09231 19.4824 19.4824 6.09231 36 6.09231C52.5176 6.09231 65.9077 19.4824 65.9077 36C65.9077 43.3462 63.2591 50.0738 58.8647 55.2799C60.3766 56.2245 61.8257 57.2599 63.204 58.3783L63.8061 58.8669C68.9257 52.6487 72 44.6834 72 36C72 16.1177 55.8823 0 36 0C16.1178 0 0 16.1177 0 36C0 44.6834 3.07432 52.6487 8.19389 58.8669L8.796 58.3783C10.1743 57.2599 11.6234 56.2245 13.1353 55.2799Z" fill="#FF355E"></path><path d="M49.2923 34.8923C49.2923 42.2334 43.3411 48.1846 36 48.1846C28.6589 48.1846 22.7077 42.2334 22.7077 34.8923C22.7077 27.5512 28.6589 21.6 36 21.6C43.3411 21.6 49.2923 27.5512 49.2923 34.8923Z" fill="#FF355E"></path></svg>